<svg width="208" height="31" viewBox="0 0 208 31" fill="none" xmlns="http://www.w3.org/2000/svg">
<path fill-rule="evenodd" clip-rule="evenodd" d="M17.1298 28.1134C9.89114 28.1134 3.71249 22.221 3.71249 15.7939C3.71249 9.39059 9.76182 3.38111 17.0778 3.38111C21.887 3.38111 25.3499 5.46925 28.1684 8.74083H31.7098C30.6498 7.0237 29.5125 5.44643 27.7805 4.21636C24.8072 2.05878 20.9552 0.783081 17.1298 0.783081C7.95243 0.783081 0.481689 7.58119 0.481689 15.7711C0.481689 23.9838 8.05633 30.7124 17.1817 30.7124C20.9044 30.7124 24.5497 29.4833 27.471 27.418C29.3069 26.0957 30.599 24.3786 31.8402 22.6148H28.2989C25.5058 25.8864 21.9389 28.1134 17.1298 28.1134ZM53.8391 12.4529C51.6163 9.87765 48.5911 8.25376 44.843 8.25376C38.1217 8.25376 32.5896 13.1502 32.5896 19.1825C32.5896 25.2138 38.1482 30.1559 44.843 30.1559C48.747 30.1559 51.4605 28.6937 53.8391 26.0025V29.6679H56.7604V8.76364H53.8391V12.4529ZM44.6883 27.7424C39.5431 27.7424 35.4844 23.7288 35.4844 19.2053C35.4844 14.7037 39.5177 10.6673 44.6883 10.6673C49.8324 10.6673 53.8391 14.7047 53.8391 19.2053C53.8391 23.7288 49.8059 27.7424 44.6883 27.7424ZM60.3018 29.6679H63.4309V1.38522H60.3018V29.6679ZM75.2444 26.3497L67.3337 8.76364H64.2312L73.7191 29.6679H76.8725L86.335 8.76364H83.2844L75.2444 26.3497ZM87.6271 29.6679H90.7551V8.76364H87.6271V29.6679ZM87.6271 6.07237H90.7551V1.38522H87.6271V6.07237ZM104.224 8.25277C101.277 8.25277 99.1831 9.64552 97.2444 11.5015V8.76364H94.3485V29.6679H97.4245V16.9297C97.3991 13.5659 100.501 10.6663 104.275 10.6663C109.005 10.6663 111.383 14.3555 111.383 18.1608V29.6689H114.278V18.1608C114.279 12.7316 110.739 8.25277 104.224 8.25277ZM143.311 1.38522L129.093 17.6033V1.38522H126.017V29.6679H129.093V21.8956L133.126 17.395L143.389 29.6679H147.294L135.09 15.1669L147.294 1.38522H143.311ZM148.43 29.6679H151.482V1.38522H148.43V29.6679ZM176.738 14.0301C174.618 10.4798 170.378 8.25277 165.905 8.25277C159.236 8.25277 153.599 13.2415 153.599 19.2272C153.599 25.2585 159.287 30.1549 165.959 30.1549C169.137 30.1549 172.267 29.0181 174.566 27.046C175.963 25.8626 176.79 24.3776 177.538 22.8231H174.256C172.601 25.7237 169.679 27.7414 165.904 27.7414C163.605 27.7414 161.355 26.9062 159.65 25.4906C157.89 24.0532 157.115 22.2884 156.778 20.2013H178.263C178.264 18.0209 177.927 15.9328 176.738 14.0301ZM156.883 17.7888C157.816 13.8684 161.252 10.6663 165.959 10.6663C169.914 10.6663 174.154 12.8477 175.084 17.7888H156.883ZM180.539 29.6679H183.614V8.76364H180.539V29.6679ZM180.539 6.16562H183.614V1.38522H180.539V6.16562ZM197.136 8.25277C194.135 8.25277 192.042 9.64552 190.077 11.5015V8.76364H187.13V29.6679H190.232V16.9297C190.207 13.5431 193.387 10.6663 197.186 10.6663C201.892 10.6663 204.375 14.3555 204.375 18.1608V29.6689H207.27V18.1608C207.27 12.7316 203.675 8.25277 197.136 8.25277Z" fill="white"/>
</svg>
