<svg width="167" height="31" viewBox="0 0 167 31" fill="none" xmlns="http://www.w3.org/2000/svg">
<path fill-rule="evenodd" clip-rule="evenodd" d="M150.179 1.37152H166.482V3.70292C166.008 3.56021 165.512 3.48665 165.013 3.48505H155.642V14.3792H164.758C165.413 14.3792 165.996 14.3146 166.481 14.2047V16.5259C166.068 16.439 165.499 16.3949 164.794 16.3949H155.642V27.6596H164.733C165.232 27.6596 165.826 27.5945 166.481 27.4526V29.9584H150.203C150.333 29.5178 150.399 29.0637 150.398 28.6078V2.75477C150.398 2.18869 150.325 1.72037 150.179 1.37152ZM146.405 8.79059L141.695 8.75864C141.464 6.38316 139.947 4.08371 136.609 3.66011C129.459 3.08253 127.444 10.1304 127.626 15.2839C127.809 20.2514 128.694 27.8884 136.075 27.8884C139.171 27.8884 142.144 25.0337 142.047 22.6263L146.405 22.5943C146.089 27.5619 139.741 30.4376 136.718 30.536C126.389 30.8523 122.066 24.6746 121.848 15.8602C121.654 7.8763 125.296 0.783081 135.504 0.783081C144.244 0.892335 145.931 5.53341 146.405 8.79059ZM72.9408 26.7115L76.0611 24.3692C77.687 26.7773 79.0225 27.8769 82.2517 27.8769C85.5286 27.8769 88.285 26.0905 88.285 22.9317C88.285 21.3734 87.5802 20.0987 86.1849 19.1404C85.5528 18.6931 83.951 17.92 81.4259 16.8415C77.6507 15.2187 73.9731 13.1045 73.9731 8.8564C73.9731 3.49591 79.0467 1.13193 84.3995 0.956866C87.5681 0.84825 91.5014 2.41806 93.091 4.1821L89.9231 6.37166C89.3581 5.42535 88.5181 4.63403 87.4923 4.08169C86.4665 3.52936 85.2932 3.23663 84.0969 3.23459C80.0541 3.23459 76.8498 7.43993 80.2 10.338C81.0493 11.0785 82.7863 11.9935 85.4324 13.0828C89.6561 14.859 93.2612 16.9827 93.2612 21.6788C93.2612 23.3016 92.7878 24.8158 91.853 26.1997C89.9722 28.9886 86.8278 30.3833 82.4339 30.3833C77.3838 30.3833 76.3892 29.3483 72.9408 26.7115ZM28.4893 1.37152H44.7782V3.70292C44.3051 3.56027 43.8094 3.48671 43.3103 3.48505H33.9396V14.3792H43.0554C43.7111 14.3792 44.2941 14.3146 44.7789 14.2047V16.5259C44.366 16.439 43.7958 16.3949 43.1046 16.3949H33.9396V27.6596H43.0312C43.5289 27.6596 44.124 27.5945 44.7789 27.4526V29.9584H28.5143C28.6332 29.5161 28.6941 29.0628 28.6958 28.6078V2.75477C28.6958 2.18869 28.6225 1.72037 28.4893 1.37152ZM0 1.37152H5.92368V1.63348C5.92368 1.87307 6.0084 2.18869 6.15434 2.59185L14.5049 25.1538L23.0754 2.49345C23.2085 2.11266 23.2818 1.74209 23.2818 1.37152H26.1586C25.8674 1.82898 25.6489 2.23278 25.515 2.59185L15.7308 28.7931C15.6339 29.0435 15.5492 29.4358 15.4766 29.9591H10.6208C10.5474 29.563 10.4379 29.173 10.2933 28.7931L0.704065 2.79885C0.482555 2.31945 0.251627 1.8436 0.0113903 1.37152H0ZM62.9145 16.2755C66.7986 15.5886 69.7729 12.9199 69.7729 9.10685C69.7729 4.10543 65.1114 1.37088 59.8918 1.37088H50.3509C50.4841 1.80726 50.5574 2.26472 50.5574 2.74391V28.5848C50.5574 29.1406 50.4841 29.609 50.3509 29.9578H56.0319C55.8929 29.5108 55.8235 29.0488 55.8254 28.5848V16.7112L57.6457 16.8856L67.1631 29.9578H72.8803L62.9145 16.2755ZM61.9314 14.0968C60.8998 14.7497 59.6611 15.0762 58.2409 15.0762H55.8133V3.45374H57.986C59.8441 3.45374 61.2878 3.86712 62.32 4.69451C63.7282 5.83945 64.4443 7.38626 64.4443 9.32536C64.4443 11.4172 63.6064 13.0081 61.9314 14.0974M120.901 28.7713L110.293 2.31967C110.175 2.01383 110.105 1.69468 110.086 1.37152H105.497C105.497 1.70951 105.436 2.06858 105.29 2.42828L95.0096 28.7713C94.875 29.1515 94.6572 29.5444 94.366 29.9584H97.3275C97.3161 29.5227 97.3766 29.1196 97.5105 28.7713L100.556 21.0028H112.27L115.281 28.772C115.439 29.1956 115.511 29.5879 115.511 29.9584H121.654C121.301 29.5118 121.047 29.1087 120.901 28.7713ZM101.358 18.9001L106.31 5.99087L111.397 18.9001H101.358Z" fill="white"/>
</svg>
